<svg width="1024" height="1024" viewBox="0 0 1024 1024" fill="none" xmlns="http://www.w3.org/2000/svg">
<g clip-path="url(#clip0_2399_106)">
<path d="M0 0H1024V1024H0V0Z" fill="url(#paint0_linear_2399_106)"/>
<path d="M341.548 362.458C349.607 358.383 357.81 354.599 366.139 351.111C367.292 401.13 364.81 453.912 366.381 503.315C404.869 490.262 442.667 474.994 480.946 461.578C484.756 459.416 514.023 448.764 518.969 447.055C541.674 439.218 565.708 428.804 588.292 421.388C592.302 422.045 604.44 421.363 606.062 422.555C601.126 426.041 602.727 418.279 600.249 424.851L601.065 426.929C606.052 428.575 611.3 427.877 614.463 430.337C615.379 437.2 613.183 431.1 613.566 437.465C595.334 444.788 576.376 451.159 557.942 458.116C515.675 474.362 473.252 490.208 430.681 505.65C404.569 515.188 375.994 525.358 350.335 536.223C343.324 539.192 332.684 555.782 325.51 560.974C317.967 568.877 309.894 577.532 301.997 584.989C301.105 603.817 301.057 636.186 302.008 655.118C326.147 670.33 358.926 689.827 384.402 702.318C401.396 697.196 421.277 689.192 438.313 682.871L524.862 651.065C536.154 646.922 551.525 640.712 562.626 637.325C565.164 639.986 575.036 650.057 576.688 652.406C580.446 656.812 595.142 673.95 598.91 676.823C603.906 682.387 631.96 714.687 635.657 717.006C654.111 728.579 689.639 747.985 709.372 756.655C723.344 753.842 792.647 736.251 801.069 730.897C816.954 720.806 855.222 665.35 864.701 662.82L887.063 663.072C885.935 666.036 884.213 671.187 882.631 673.677C869.858 698.618 833.726 729.496 815.483 752.289C813.942 754.215 809.087 755.919 806.649 756.695C775.13 765.919 740.529 774.458 708.274 783.611C696.72 779.045 628.485 743.217 620.587 736.19C601.619 719.314 578.209 684.222 556.582 665.733C545.189 668.486 529.354 674.988 517.77 679.242L427.967 712.721C414.797 717.631 394.836 725.968 382.042 729.204C349.853 711.461 311.695 690.392 280.43 671.217C279.623 670.421 278.115 669.01 278.092 667.921C277.484 639.815 277.61 603.21 277.414 576.05C292.63 558.841 324.787 526.747 341.569 511.724C343.085 472.363 341.107 430.458 342.28 390.617C341.395 389.08 342.079 389.741 339.853 389.117C311.286 399.135 306.349 410.535 287.768 432.912C281.975 427.942 276.503 422.372 271.063 416.999C295.157 380.953 303.913 378.418 341.548 362.458Z" fill="url(#paint1_linear_2399_106)"/>
<path d="M300.019 584.229C308.237 577.04 316.867 564.179 325.301 561.111C317.758 568.997 309.683 577.633 301.785 585.074C300.893 603.86 300.846 636.159 301.797 655.05C325.938 670.229 358.722 689.684 384.201 702.147C401.197 697.037 421.081 689.05 438.119 682.743L524.679 651.006C535.973 646.872 551.347 640.676 562.449 637.296C564.987 639.951 574.861 650 576.513 652.344C580.271 656.74 594.969 673.841 598.737 676.707C603.734 682.26 631.792 714.489 635.489 716.803C653.945 728.351 689.478 747.714 709.214 756.365C723.188 753.559 792.5 736.006 800.923 730.664C816.81 720.595 855.083 665.26 864.563 662.735C859.415 672.674 811.3 724.448 802.162 734.054C770.901 742.081 739.952 751.054 708.751 759.111C695.855 753.005 643.397 727.033 633.827 718.282C614.141 700.286 581.56 660.231 562.076 639.68L447.838 681.445C427.859 688.728 403.676 698.536 383.643 704.46C355.444 688.829 327.419 672.885 299.573 656.629C298.972 643.663 298.669 594.282 300.019 584.229Z" fill="#D13A39"/>
<path d="M341.063 362.451C349.129 358.379 357.338 354.597 365.673 351.111C366.826 401.102 364.343 453.854 365.915 503.23C404.431 490.184 442.257 474.924 480.563 461.516C479.847 462.726 479.098 464.177 477.672 464.707C440.021 478.701 401.681 493.425 363.814 506.611C363.024 495.221 363.479 479.49 363.472 467.83L363.237 401.462C363.167 390.548 363.625 370.468 361.616 360.391C357.52 355.261 352.045 365.664 341.063 362.451Z" fill="#D13A39"/>
<path d="M342.242 390.611C345.193 403.848 344.586 419.915 344.342 433.547C343.876 459.662 344.717 486.253 343.854 512.31C321.041 532.794 301.234 556.528 279.437 576.726C279.215 589.053 277.843 662.011 280.094 671.111C279.283 670.315 277.768 668.904 277.745 667.816C277.134 639.72 277.261 603.128 277.063 575.978C292.353 558.775 324.665 526.692 341.528 511.675C343.051 472.328 341.064 430.438 342.242 390.611Z" fill="#D13A39"/>
<path d="M813.39 751.752C829.626 731.379 868.541 694.916 880.137 673.111L882.562 673.595C869.799 698.535 833.693 729.413 815.464 752.206C813.923 754.131 809.072 755.835 806.636 756.611L803.062 755.916L803.344 755.018L813.39 751.752Z" fill="#9F171C"/>
<path d="M340.063 371.111C341.533 371.959 341.737 372.196 343.063 373.268L342.032 374.957C341.122 375.224 341.731 375.12 340.183 374.834L340.063 371.111Z" fill="#F35653"/>
<path d="M538.514 145.611L589.796 145.739C613.926 145.746 622.809 144.455 646.063 152.163C629.537 168.142 612.718 186.149 597.118 203.146C562.533 240.845 524.424 276.448 490.323 314.417C489.739 349.051 491.602 393.159 489.689 426.257C482.014 429.383 474.282 432.368 466.497 435.209C466.099 392.522 466.96 348.525 466.003 306.099C467.292 302.989 557.176 208.507 564.971 203.011C572.101 193.839 587.57 178.798 596.242 169.711C580.359 169.852 563.148 169.615 547.407 170.133C513.699 202.105 481.654 236.814 448.329 269.278C441.589 275.844 434.149 283.176 427.973 290.25L428.11 392.087C428.163 410.205 428.675 432.275 427.704 450.105L403.917 459.111C403.413 403.36 402.323 338.235 403.834 282.902C405.504 276.625 447.948 235.919 455.97 227.858C466.764 217.011 483.737 198.952 494.966 189.007C501.925 181.348 530.628 151.703 538.514 145.611Z" fill="url(#paint2_linear_2399_106)"/>
<path d="M495.063 188.611C494.179 197.918 438 248.918 427.129 259.492C419.865 266.558 413.029 274.985 405.538 281.64C405.097 282.031 404.555 282.287 404.063 282.611C405.731 276.328 448.113 235.576 456.123 227.505C466.902 216.647 483.85 198.567 495.063 188.611Z" fill="#F35653"/>
<path d="M466.062 306.111C467.354 302.99 557.437 208.129 565.25 202.611L565.563 204.344C557.377 213.909 470.704 303.815 466.062 306.111Z" fill="#F35653"/>
<path d="M67.2129 380.563C69.9492 378.209 77.8511 367.629 80.6669 364.021C88.8224 353.573 97.1982 342.453 106.658 333.111C109.866 335.811 110.621 341.46 114.565 346.157L116.729 346.299L120.687 342.701L118.346 350.127C115.701 355.215 101.608 372.668 97.5253 377.867C106.579 388.509 117.873 398.073 127.846 407.876C173.756 453.002 221.648 497.058 267.063 542.62C261.399 549.662 257.632 554.208 251.28 560.551C197.427 508.123 143.555 456.982 90.3822 403.788C88.8707 433.696 89.9998 464.175 89.7754 494.151C89.6979 504.523 89.6244 515.583 90.1869 525.917C98.8919 534.376 111.396 546.682 119.234 555.749C133.149 569.114 146.746 582.806 160.014 596.815C188.641 597.608 218.644 596.569 247.485 596.687C247.629 602.999 248.436 615.892 246.35 621.216C215.679 622.137 181.444 621.1 150.134 621.531C122.675 596.099 95.0557 563.224 66.601 536.924C64.9194 532.684 64.37 388.569 66.2197 379.236L67.2129 380.563Z" fill="url(#paint3_linear_2399_106)"/>
<path d="M66.2199 379.111L67.2134 380.441C66.3256 418.051 68.9941 458.773 67.7046 496.716C67.4238 504.993 68.226 530.384 66.6014 537.111C64.9194 532.863 64.3698 388.463 66.2199 379.111Z" fill="#D13A39"/>
<path d="M159.554 599.171C147.629 587.567 131.725 571.043 119.851 558.713C119.589 557.68 119.326 556.646 119.063 555.611C133.03 568.983 146.677 582.682 159.994 596.698C188.728 597.491 218.841 596.452 247.789 596.569C247.933 602.885 248.744 615.784 246.65 621.111C245.306 614.65 245.848 605.778 245.993 598.962L159.554 599.171Z" fill="#D13A39"/>
<path d="M106.563 346.611C105.026 353.493 104.128 353.13 98.0635 356.611C99.7928 352.035 102.217 348.449 106.563 346.611Z" fill="#F35653"/>
<path d="M875.421 340.439L877.012 337.611L878.763 337.876C881.853 343.951 885.668 355.894 890.691 359.016C896.206 355.853 889.271 355.55 895.391 354.712C897.052 356.554 898.29 357.943 900.102 359.651L901.41 358.245C900.796 353.297 900.041 353.541 901.732 349.659C903.725 348.762 904.188 348.443 906.292 347.897C917.454 369.17 928.778 390.364 940.242 411.476C945.607 421.471 953.287 432.746 956.518 443.51C959.648 453.904 958.49 551.475 957.564 567.134C938.078 587.478 914.193 613.756 893.952 633.027C841.069 634.607 747.844 631.668 694.618 634.164C692.646 634.254 607.342 670.322 600.206 673.502C599.119 675.243 599.26 674.689 598.767 676.611C595.002 673.743 580.317 656.635 576.562 652.238C585.782 658.708 586.537 652.731 596.29 649.068C624.745 638.38 662.631 618.71 690.089 609.634C699.651 606.474 761.462 608.798 775.825 608.796L846.222 608.877C856.388 608.907 872.986 608.42 882.326 609.407C892.704 601.253 922.396 569.523 933.186 558.46C934.183 542.34 935.713 460.924 932.24 449.204C929.382 439.569 921.631 428.515 916.85 419.443C903.011 393.149 888.698 367.02 875.421 340.439Z" fill="url(#paint4_linear_2399_106)"/>
<path d="M933.21 558.611L935.063 559.917C930.866 565.583 886.76 609.735 882.944 611.111L882.062 610.176L882.603 609.604C892.929 601.444 922.474 569.684 933.21 558.611Z" fill="#D13A39"/>
<path d="M717.866 309.611C724.627 313.63 774.079 363.808 780.063 370.721C757.544 396.184 730.501 421.552 706.934 446.342C698.329 455.397 675.568 479.411 666.823 486.228C662.319 489.739 626.056 501.921 617.955 504.981C562.811 525.839 507.546 546.393 452.174 566.64C428.388 575.393 402.387 583.472 379.832 594.395C376.925 595.803 357.072 617.848 352.846 622.278C347.382 627.36 342.862 631.687 337.756 637.111C337.435 625.468 337.515 613.814 337.998 602.175C342.559 597.129 363.105 574.765 367.459 572.651C383.212 565.003 407.411 557.388 424.287 551.177L581.27 492.764L626.016 476.07C630.691 474.321 649.291 467.599 652.727 465.077C665.251 455.875 680.999 438.195 692.012 426.886C710.41 408.016 728.949 389.284 747.62 370.689C736.567 359.859 725.403 349.127 714.158 338.493C713.846 327.734 711.74 317.416 717.866 309.611Z" fill="#F4F5F5"/>
<path d="M703.262 237.611C711.447 240.857 754.148 257.432 757.747 260.555C783.159 282.562 818.824 318.955 841.212 343.348C842.765 398.372 841.777 460.847 841.464 516.294C819.217 516.685 796.959 516.715 774.702 516.382C782.232 508.48 790.044 499.983 797.907 492.49C804.58 492.695 811.274 493.052 817.937 492.594C818.148 463.577 818.148 434.56 817.937 405.543C817.907 390.35 818.642 367.736 817.634 353.023C799.58 332.17 766.164 300.045 744.894 281.036C741.457 277.961 714.421 268.217 708.221 266.492C698.484 276.261 688.937 286.209 679.573 296.333C678.514 322.268 681.337 356.081 679.643 379.742C663.898 396.392 644.624 417.972 626.943 432.593C624.735 434.414 616.328 436.887 613.354 437.649C612.971 431.286 615.169 437.384 614.252 430.524C611.086 428.065 605.834 428.763 600.845 427.118L600.028 425.041C602.508 418.472 600.905 426.23 605.844 422.745C604.221 421.554 592.075 422.236 588.062 421.58C595.018 418.503 613.808 412.412 618.173 408.557C630.763 397.445 643.989 382.4 655.561 370.033C656.327 342.574 655.299 314.426 655.611 286.816C670.944 270.511 687.163 253.166 703.262 237.611Z" fill="url(#paint5_linear_2399_106)"/>
<path d="M417.767 204.537L434.563 204.111C427.43 210.442 417.737 221.74 410.316 229.084C405.82 229.129 382.24 228.625 379.292 229.989C335.523 250.246 273.332 277.716 233.144 299.805C229.187 301.979 180.735 366.675 178.313 370.749C190.433 383.913 204.693 397.022 217.404 409.77C247.68 440.134 279.242 469.668 308.905 500.587C305.1 504.583 296.298 514.534 292.06 516.611C242.814 469.701 194.794 420.068 145.563 372.904C168.971 341.496 195.598 309.942 218.226 278.295C258.284 261.622 299.417 238.686 339.54 221.499C347.417 218.126 367.23 206.863 373.934 205.511C383.172 203.648 406.825 204.534 417.767 204.537Z" fill="#F4F5F5"/>
<path d="M769.949 437.505C773.636 433.297 776.528 429.847 780.76 426.111C781.344 438.144 781.938 448.405 781.263 460.474L687.167 557.175C678.321 566.127 661.908 584.519 653.464 591.945C626.895 592.559 594.885 590.678 568.658 592.954C559.56 593.744 533.333 604.998 523.741 608.613L439.259 640.106C426.146 645.076 399.967 655.842 387.421 659.038C382.839 661.185 379.625 661.568 376.563 657.405C377.05 653.443 376.848 654.723 379.925 651.175C402.537 628.453 394.135 631.034 425.592 619.308L476.896 600.18L533.524 579.049C539.862 576.665 559.096 568.638 564.265 568.251C590.089 566.315 618.431 569.967 644.326 567.144C681.636 527.007 721.505 489.148 758.734 448.897C762.271 445.066 766.069 440.958 769.949 437.505Z" fill="url(#paint6_linear_2399_106)"/>
<path d="M770.063 437.611C769.318 445.929 680.003 531.124 667.44 546.143C663.813 550.483 649.536 565.281 644.922 569.946C620.621 573.064 586.88 568.114 564 570.812C552.887 572.12 517.957 587.359 505.051 592.131L437.194 617.277C427.208 621.018 413.524 625.854 404.061 630.24C399.015 632.568 389.111 645.472 382.99 650.875L382.444 651.611L380.063 651.289C402.675 628.566 394.273 631.147 425.728 619.421L477.029 600.292L533.654 579.16C539.991 576.776 559.224 568.748 564.393 568.361C590.215 566.426 618.556 570.078 644.448 567.254C681.756 527.116 721.623 489.255 758.85 449.003C762.386 445.172 766.185 441.064 770.063 437.611Z" fill="#D13A39"/>
<path d="M382.845 650.968C385.809 650.267 387.266 649.557 390.002 650.761C391.647 655.35 389.342 655.439 387.41 659.071C382.832 661.173 379.622 661.548 376.563 657.472C377.05 653.593 376.847 654.847 379.921 651.373L382.3 651.688L382.845 650.968Z" fill="#9F171C"/>
<path d="M66.0635 379.284L145.816 276.163C153.749 266.002 176.871 233.488 186.394 229.144C245.245 202.304 303.831 170.939 363.234 145.876C366.016 144.702 399.833 145.227 404.932 145.236C434.477 145.416 464.021 145.404 493.563 145.199C486.45 152.429 475.901 163.493 468.33 169.658C453.702 169.873 371.149 167.864 363.538 171.649C308.728 198.909 249.163 224.935 195.503 252.822C189.51 255.937 130.775 336.504 119.145 349.172L118.225 350.159L120.568 342.728L116.607 346.329L114.441 346.186C110.495 341.487 109.74 335.835 106.529 333.134C97.063 342.48 88.6815 353.607 80.5205 364.06C77.7028 367.671 69.7955 378.256 67.0574 380.611L66.0635 379.284Z" fill="#F35653"/>
<path d="M684.702 169.111C709.441 178.451 734.03 188.167 758.467 198.255C788.269 210.459 787.655 208.724 810.562 231.047C799.743 231.38 788.873 231.736 778.104 232.863C757.36 223.268 711.625 204.285 690.419 197.321C666.545 220.668 639.843 250.199 616.402 274.628C615.597 301.923 616.654 330.085 616.03 357.733C607.686 365.844 601.386 371.639 592.428 379.111C591.422 366.376 591.794 350.309 591.754 337.293L591.562 266.534C619.673 234.375 654.669 200.032 684.702 169.111Z" fill="#F4F5F5"/>
<path d="M877.352 424.111C883.463 428.523 896.53 450.703 901.1 457.992C901.664 486.174 901.714 514.365 901.241 542.549C891.204 553.517 880.885 564.225 870.295 574.662C829.514 575.566 785.028 574.82 744.005 574.86L718.062 574.952C725.633 566.507 733.173 557.919 741.71 550.479C781.223 550.876 820.735 550.804 860.248 550.261L877.221 533.765C877.996 497.693 876.788 460.451 877.352 424.111Z" fill="#F4F5F5"/>
<path d="M519.23 706.111C536.641 717.412 558.253 731.543 576.068 741.917C586.728 759.583 654.952 872.942 655.062 878.421C649.077 879.61 635.193 878.945 628.502 878.744C620.301 862.458 566.012 768.245 556.944 759.744C548.873 752.18 504.942 725.57 493.617 719.426L493.062 716.868C496.579 713.262 513.809 708.196 519.23 706.111Z" fill="#9F171C"/>
<path d="M519.23 706.111C536.641 717.424 558.253 731.571 576.068 741.956C586.728 759.642 654.952 873.126 655.062 878.611C628.351 836.454 599.907 786.775 574.314 743.297C555.765 733.86 536.207 718.13 518.091 708.662C510.867 711.839 498.796 714.944 493.617 719.441L493.062 716.88C496.579 713.27 513.809 708.199 519.23 706.111Z" fill="#D13A39"/>
<path d="M363.977 280.611C367.164 282.354 365.78 302.412 365.676 307.066C349.01 314.377 283.214 342.828 273.427 351.668C261.553 362.394 252.618 378.432 241.878 390.611L233.738 383.239L224.563 373.818C233.428 362.565 250.039 340.629 259.245 331.335C263.798 326.739 297.79 311.866 306.055 308.03C325.414 299 344.721 289.861 363.977 280.611Z" fill="#F35653"/>
<path d="M810.627 231.111C833.417 252.442 861.376 282.06 883.399 304.872C886.953 308.554 903.654 341.699 906.563 347.857C904.452 348.402 903.988 348.721 901.988 349.619C900.292 353.501 901.049 353.257 901.665 358.205L900.353 359.611C898.535 357.904 897.293 356.514 895.627 354.672C889.488 355.51 896.445 355.813 890.911 358.976C885.873 355.854 882.046 343.911 878.946 337.835L877.189 337.571L875.594 340.399C872.655 335.2 868.879 324.729 865.506 320.797C839.364 290.323 804.084 263.186 778.062 232.928C788.867 231.801 799.772 231.444 810.627 231.111Z" fill="#F35653"/>
<path d="M700.944 668.32C739.958 668.208 780.099 667.853 819.063 668.442C812.538 676.719 804.366 685.28 797.168 693.079C783.989 693.678 768.639 693.374 755.289 693.404C738.752 693.313 715.963 692.074 700.361 695.334C695.073 696.431 679.713 703.204 674.023 705.611C663.981 701.275 657.859 697.324 649.062 690.947C664.302 683.178 685.041 674.982 700.944 668.32Z" fill="#F4F5F5"/>
<path d="M632.062 771.111L646.084 778.719C650.915 781.222 668.033 789.677 670.384 793.027C679.119 805.509 688.429 826.648 695.531 840.31C702.34 853.326 709.35 866.242 716.562 879.046C707.454 879.036 697.417 879.258 688.389 878.935C677.646 860.42 667.115 838.131 656.988 818.939C652.015 809.545 640.788 788.931 637.338 780.092L632.062 771.111Z" fill="#F4F5F5"/>
<path d="M632.062 771.111L646.063 778.736L637.33 780.111L632.062 771.111Z" fill="#F4F5F5"/>
<path d="M122.204 477.111C124.766 478.38 203.359 557.877 208.063 564.087C196.95 564.752 185.266 564.621 174.112 564.555C157.468 546.517 140.224 529.048 122.41 512.178C121.809 501.175 122.163 488.259 122.204 477.111Z" fill="#F4F5F5"/>
<path d="M551.349 296.611C554.105 299.141 552.783 391.966 552.48 402.67C544.536 405.908 536.552 409.055 528.537 412.111C527.79 403.114 528.154 389.645 528.133 380.319L528.073 322.352C534.815 313.972 543.93 304.622 551.349 296.611Z" fill="#F4F5F5"/>
</g>
<defs>
<linearGradient id="paint0_linear_2399_106" x1="520.177" y1="1030.16" x2="503.323" y2="-6.65715" gradientUnits="userSpaceOnUse">
<stop stop-color="#242D35"/>
<stop offset="1" stop-color="#3F454E"/>
</linearGradient>
<linearGradient id="paint1_linear_2399_106" x1="568.642" y1="772.7" x2="585.107" y2="368.099" gradientUnits="userSpaceOnUse">
<stop stop-color="#961117"/>
<stop offset="1" stop-color="#F84945"/>
</linearGradient>
<linearGradient id="paint2_linear_2399_106" x1="526.95" y1="447.41" x2="513.177" y2="152.056" gradientUnits="userSpaceOnUse">
<stop stop-color="#E63D3A"/>
<stop offset="1" stop-color="#F96461"/>
</linearGradient>
<linearGradient id="paint3_linear_2399_106" x1="133.953" y1="613.375" x2="186.647" y2="352.224" gradientUnits="userSpaceOnUse">
<stop stop-color="#B81F23"/>
<stop offset="1" stop-color="#FE4343"/>
</linearGradient>
<linearGradient id="paint4_linear_2399_106" x1="769.409" y1="672.718" x2="773.966" y2="347.486" gradientUnits="userSpaceOnUse">
<stop stop-color="#AF2523"/>
<stop offset="1" stop-color="#F54848"/>
</linearGradient>
<linearGradient id="paint5_linear_2399_106" x1="752.434" y1="532.36" x2="686.31" y2="247.253" gradientUnits="userSpaceOnUse">
<stop stop-color="#DF3633"/>
<stop offset="1" stop-color="#F85452"/>
</linearGradient>
<linearGradient id="paint6_linear_2399_106" x1="573.955" y1="667.769" x2="593.303" y2="424.035" gradientUnits="userSpaceOnUse">
<stop stop-color="#B42523"/>
<stop offset="1" stop-color="#E54340"/>
</linearGradient>
<clipPath id="clip0_2399_106">
<rect width="1024" height="1024" fill="white"/>
</clipPath>
</defs>
</svg>
