<svg width="1024" height="1024" viewBox="0 0 1024 1024" fill="none" xmlns="http://www.w3.org/2000/svg">
<path d="M341.547 362.458C349.606 358.383 357.809 354.599 366.138 351.111C367.291 401.13 364.809 453.912 366.38 503.315C404.868 490.262 442.666 474.994 480.945 461.578C484.755 459.416 514.022 448.764 518.968 447.055C541.673 439.218 565.707 428.804 588.291 421.388C592.301 422.045 604.439 421.363 606.061 422.555C601.125 426.041 602.726 418.279 600.248 424.851L601.064 426.929C606.051 428.575 611.299 427.877 614.462 430.337C615.378 437.2 613.182 431.1 613.565 437.465C595.333 444.788 576.375 451.159 557.941 458.116C515.674 474.362 473.251 490.208 430.68 505.65C404.568 515.188 375.993 525.358 350.334 536.223C343.323 539.192 332.683 555.782 325.509 560.974C317.966 568.877 309.893 577.532 301.996 584.989C301.104 603.817 301.056 636.186 302.007 655.118C326.146 670.33 358.925 689.827 384.401 702.318C401.395 697.196 421.276 689.192 438.312 682.871L524.861 651.065C536.153 646.922 551.524 640.712 562.625 637.325C565.163 639.986 575.035 650.057 576.687 652.406C580.445 656.812 595.141 673.95 598.909 676.823C603.905 682.387 631.959 714.687 635.656 717.006C654.11 728.579 689.638 747.985 709.371 756.655C723.343 753.842 792.646 736.251 801.068 730.897C816.953 720.806 855.221 665.35 864.7 662.82L887.062 663.072C885.934 666.036 884.212 671.187 882.63 673.677C869.857 698.618 833.725 729.496 815.482 752.289C813.941 754.215 809.086 755.919 806.648 756.695C775.129 765.919 740.528 774.458 708.273 783.611C696.719 779.045 628.484 743.217 620.586 736.19C601.618 719.314 578.208 684.222 556.581 665.733C545.188 668.486 529.353 674.988 517.769 679.242L427.966 712.721C414.796 717.631 394.835 725.968 382.041 729.204C349.852 711.461 311.694 690.392 280.429 671.217C279.622 670.421 278.114 669.01 278.091 667.921C277.483 639.815 277.609 603.21 277.413 576.05C292.629 558.841 324.786 526.747 341.568 511.724C343.084 472.363 341.106 430.458 342.279 390.617C341.395 389.08 342.078 389.741 339.852 389.117C311.285 399.135 306.348 410.535 287.767 432.912C281.974 427.942 276.502 422.372 271.062 416.999C295.156 380.953 303.912 378.418 341.547 362.458Z" fill="#00D9FF"/>
<path d="M300.018 584.229C308.236 577.04 316.866 564.179 325.3 561.111C317.757 568.997 309.682 577.633 301.784 585.074C300.892 603.86 300.845 636.159 301.796 655.05C325.937 670.229 358.721 689.684 384.2 702.147C401.196 697.037 421.08 689.05 438.118 682.743L524.678 651.006C535.972 646.872 551.346 640.676 562.448 637.296C564.986 639.951 574.86 650 576.512 652.344C580.27 656.74 594.968 673.841 598.736 676.707C603.733 682.26 631.791 714.489 635.488 716.803C653.945 728.351 689.477 747.714 709.213 756.365C723.187 753.559 792.5 736.006 800.922 730.664C816.809 720.595 855.082 665.26 864.562 662.735C859.414 672.674 811.299 724.448 802.161 734.054C770.9 742.081 739.951 751.054 708.75 759.111C695.854 753.005 643.396 727.033 633.826 718.282C614.14 700.286 581.559 660.231 562.075 639.68L447.837 681.445C427.858 688.728 403.675 698.536 383.642 704.46C355.443 688.829 327.418 672.885 299.572 656.629C298.971 643.663 298.668 594.282 300.018 584.229Z" fill="#00D9FF"/>
<path d="M341.062 362.451C349.128 358.379 357.337 354.597 365.672 351.111C366.825 401.102 364.342 453.854 365.914 503.23C404.43 490.184 442.256 474.924 480.562 461.516C479.846 462.726 479.097 464.177 477.671 464.707C440.02 478.701 401.68 493.425 363.813 506.611C363.023 495.221 363.478 479.49 363.471 467.83L363.236 401.462C363.166 390.548 363.624 370.468 361.615 360.391C357.519 355.261 352.044 365.664 341.062 362.451Z" fill="#00D9FF"/>
<path d="M342.241 390.611C345.192 403.848 344.585 419.915 344.341 433.547C343.875 459.662 344.716 486.253 343.853 512.31C321.04 532.794 301.233 556.528 279.436 576.726C279.214 589.053 277.842 662.011 280.093 671.111C279.282 670.315 277.767 668.904 277.744 667.816C277.133 639.72 277.26 603.128 277.062 575.978C292.352 558.775 324.664 526.692 341.527 511.675C343.05 472.328 341.063 430.438 342.241 390.611Z" fill="#00D9FF"/>
<path d="M813.39 751.752C829.626 731.379 868.541 694.916 880.137 673.111L882.562 673.595C869.799 698.535 833.693 729.413 815.464 752.206C813.923 754.131 809.072 755.835 806.636 756.611L803.062 755.916L803.344 755.018L813.39 751.752Z" fill="#00D9FF"/>
<path d="M340.062 371.111C341.532 371.959 341.736 372.196 343.063 373.268L342.031 374.957C341.121 375.224 341.73 375.12 340.182 374.834L340.062 371.111Z" fill="#00D9FF"/>
<path d="M538.513 145.611L589.795 145.739C613.926 145.746 622.808 144.455 646.063 152.163C629.536 168.142 612.717 186.149 597.117 203.146C562.532 240.845 524.423 276.448 490.322 314.417C489.738 349.051 491.601 393.159 489.688 426.257C482.013 429.383 474.281 432.368 466.496 435.209C466.098 392.522 466.959 348.525 466.002 306.099C467.291 302.989 557.175 208.507 564.97 203.011C572.1 193.839 587.569 178.798 596.241 169.711C580.358 169.852 563.147 169.615 547.406 170.133C513.698 202.105 481.653 236.814 448.328 269.278C441.588 275.844 434.148 283.176 427.972 290.25L428.109 392.087C428.162 410.205 428.674 432.275 427.703 450.105L403.916 459.111C403.412 403.36 402.322 338.235 403.834 282.902C405.503 276.625 447.947 235.919 455.969 227.858C466.763 217.011 483.736 198.952 494.965 189.007C501.924 181.348 530.627 151.703 538.513 145.611Z" fill="#00D9FF"/>
<path d="M495.063 188.611C494.178 197.918 437.999 248.918 427.128 259.492C419.864 266.558 413.028 274.985 405.537 281.64C405.096 282.031 404.554 282.287 404.062 282.611C405.73 276.328 448.112 235.576 456.122 227.505C466.901 216.647 483.849 198.567 495.063 188.611Z" fill="#00D9FF"/>
<path d="M466.062 306.111C467.354 302.99 557.437 208.129 565.25 202.611L565.563 204.344C557.377 213.909 470.704 303.815 466.062 306.111Z" fill="#00D9FF"/>
<path d="M67.212 380.563C69.9482 378.209 77.8501 367.629 80.6659 364.021C88.8214 353.573 97.1972 342.453 106.657 333.111C109.865 335.811 110.62 341.46 114.564 346.157L116.728 346.299L120.686 342.701L118.345 350.127C115.7 355.215 101.607 372.668 97.5243 377.867C106.578 388.509 117.872 398.073 127.845 407.876C173.756 453.002 221.647 497.058 267.062 542.62C261.398 549.662 257.631 554.208 251.279 560.551C197.426 508.123 143.554 456.982 90.3812 403.788C88.8697 433.696 89.9988 464.175 89.7744 494.151C89.6969 504.523 89.6234 515.583 90.186 525.917C98.8909 534.376 111.395 546.682 119.233 555.749C133.148 569.114 146.745 582.806 160.013 596.815C188.64 597.608 218.643 596.569 247.484 596.687C247.628 602.999 248.435 615.892 246.349 621.216C215.678 622.137 181.443 621.1 150.133 621.531C122.674 596.099 95.0547 563.224 66.6001 536.924C64.9185 532.684 64.369 388.569 66.2187 379.236L67.212 380.563Z" fill="#00D9FF"/>
<path d="M66.219 379.111L67.2125 380.441C66.3247 418.051 68.9931 458.773 67.7037 496.716C67.4228 504.993 68.2251 530.384 66.6004 537.111C64.9184 532.863 64.3689 388.463 66.219 379.111Z" fill="#00D9FF"/>
<path d="M159.553 599.171C147.628 587.567 131.724 571.043 119.85 558.713C119.588 557.68 119.325 556.646 119.062 555.611C133.029 568.983 146.676 582.682 159.993 596.698C188.727 597.491 218.84 596.452 247.788 596.569C247.933 602.885 248.743 615.784 246.649 621.111C245.305 614.65 245.847 605.778 245.992 598.962L159.553 599.171Z" fill="#00D9FF"/>
<path d="M106.563 346.611C105.025 353.493 104.127 353.13 98.0625 356.611C99.7918 352.035 102.216 348.449 106.563 346.611Z" fill="#00D9FF"/>
<path d="M875.421 340.439L877.012 337.611L878.763 337.876C881.853 343.951 885.668 355.894 890.691 359.016C896.206 355.853 889.271 355.55 895.391 354.712C897.052 356.554 898.29 357.943 900.102 359.651L901.41 358.245C900.796 353.297 900.041 353.541 901.732 349.659C903.725 348.762 904.188 348.443 906.292 347.897C917.454 369.17 928.778 390.364 940.242 411.476C945.607 421.471 953.287 432.746 956.518 443.51C959.648 453.904 958.49 551.475 957.564 567.134C938.078 587.478 914.193 613.756 893.952 633.027C841.069 634.607 747.844 631.668 694.618 634.164C692.646 634.254 607.342 670.322 600.206 673.502C599.119 675.243 599.26 674.689 598.767 676.611C595.002 673.743 580.317 656.635 576.562 652.238C585.782 658.708 586.537 652.731 596.29 649.068C624.745 638.38 662.631 618.71 690.089 609.634C699.651 606.474 761.462 608.798 775.825 608.796L846.222 608.877C856.388 608.907 872.986 608.42 882.326 609.407C892.704 601.253 922.396 569.523 933.186 558.46C934.183 542.34 935.713 460.924 932.24 449.204C929.382 439.569 921.631 428.515 916.85 419.443C903.011 393.149 888.698 367.02 875.421 340.439Z" fill="#00D9FF"/>
<path d="M933.21 558.611L935.063 559.917C930.866 565.583 886.76 609.735 882.944 611.111L882.062 610.176L882.603 609.604C892.929 601.444 922.474 569.684 933.21 558.611Z" fill="#00D9FF"/>
<path d="M717.865 309.611C724.626 313.63 774.078 363.808 780.063 370.721C757.543 396.184 730.5 421.552 706.933 446.342C698.328 455.397 675.567 479.411 666.822 486.228C662.318 489.739 626.055 501.921 617.954 504.981C562.81 525.839 507.545 546.393 452.173 566.64C428.387 575.393 402.386 583.472 379.831 594.395C376.924 595.803 357.071 617.848 352.845 622.278C347.381 627.36 342.861 631.687 337.755 637.111C337.434 625.468 337.514 613.814 337.997 602.175C342.558 597.129 363.104 574.765 367.458 572.651C383.211 565.003 407.41 557.388 424.286 551.177L581.269 492.764L626.015 476.07C630.69 474.321 649.29 467.599 652.726 465.077C665.25 455.875 680.998 438.195 692.011 426.886C710.409 408.016 728.949 389.284 747.619 370.689C736.566 359.859 725.402 349.127 714.157 338.493C713.845 327.734 711.739 317.416 717.865 309.611Z" fill="#0A2463"/>
<path d="M703.262 237.611C711.447 240.857 754.148 257.432 757.747 260.555C783.159 282.562 818.824 318.955 841.212 343.348C842.765 398.372 841.777 460.847 841.464 516.294C819.217 516.685 796.959 516.715 774.702 516.382C782.232 508.48 790.044 499.983 797.907 492.49C804.58 492.695 811.274 493.052 817.937 492.594C818.148 463.577 818.148 434.56 817.937 405.543C817.907 390.35 818.642 367.736 817.634 353.023C799.58 332.17 766.164 300.045 744.894 281.036C741.457 277.961 714.421 268.217 708.221 266.492C698.484 276.261 688.937 286.209 679.573 296.333C678.514 322.268 681.337 356.081 679.643 379.742C663.898 396.392 644.624 417.972 626.943 432.593C624.735 434.414 616.328 436.887 613.354 437.649C612.971 431.286 615.169 437.384 614.252 430.524C611.086 428.065 605.834 428.763 600.845 427.118L600.028 425.041C602.508 418.472 600.905 426.23 605.844 422.745C604.221 421.554 592.075 422.236 588.062 421.58C595.018 418.503 613.808 412.412 618.173 408.557C630.763 397.445 643.989 382.4 655.561 370.033C656.327 342.574 655.299 314.426 655.611 286.816C670.944 270.511 687.163 253.166 703.262 237.611Z" fill="#00D9FF"/>
<path d="M417.766 204.537L434.563 204.111C427.429 210.442 417.736 221.74 410.315 229.084C405.819 229.129 382.239 228.625 379.291 229.989C335.522 250.246 273.331 277.716 233.143 299.805C229.186 301.979 180.734 366.675 178.312 370.749C190.432 383.913 204.692 397.022 217.403 409.77C247.679 440.134 279.242 469.668 308.904 500.587C305.099 504.583 296.297 514.534 292.059 516.611C242.813 469.701 194.793 420.068 145.562 372.904C168.97 341.496 195.597 309.942 218.225 278.295C258.283 261.622 299.416 238.686 339.539 221.499C347.416 218.126 367.229 206.863 373.933 205.511C383.171 203.648 406.824 204.534 417.766 204.537Z" fill="#0A2463"/>
<path d="M769.948 437.505C773.635 433.297 776.527 429.847 780.759 426.111C781.343 438.144 781.938 448.405 781.262 460.474L687.166 557.175C678.32 566.127 661.907 584.519 653.463 591.945C626.894 592.559 594.884 590.678 568.657 592.954C559.559 593.744 533.332 604.998 523.74 608.613L439.258 640.106C426.145 645.076 399.966 655.842 387.42 659.038C382.838 661.185 379.624 661.568 376.562 657.405C377.049 653.443 376.847 654.723 379.924 651.175C402.536 628.453 394.134 631.034 425.591 619.308L476.895 600.18L533.523 579.049C539.861 576.665 559.095 568.638 564.264 568.251C590.088 566.315 618.43 569.967 644.325 567.144C681.635 527.007 721.504 489.148 758.733 448.897C762.27 445.066 766.068 440.958 769.948 437.505Z" fill="#00D9FF"/>
<path d="M770.063 437.611C769.317 445.929 680.002 531.124 667.439 546.143C663.812 550.483 649.535 565.281 644.921 569.946C620.62 573.064 586.879 568.114 563.999 570.812C552.886 572.12 517.956 587.359 505.05 592.131L437.193 617.277C427.207 621.018 413.523 625.854 404.06 630.24C399.014 632.568 389.11 645.472 382.989 650.875L382.443 651.611L380.062 651.289C402.674 628.566 394.272 631.147 425.727 619.421L477.028 600.292L533.653 579.16C539.99 576.776 559.223 568.748 564.392 568.361C590.214 566.426 618.555 570.078 644.447 567.254C681.755 527.116 721.622 489.255 758.849 449.003C762.385 445.172 766.184 441.064 770.063 437.611Z" fill="#00D9FF"/>
<path d="M382.844 650.968C385.808 650.267 387.265 649.557 390.001 650.761C391.646 655.35 389.341 655.439 387.409 659.071C382.831 661.173 379.621 661.548 376.562 657.472C377.049 653.593 376.846 654.847 379.92 651.373L382.299 651.688L382.844 650.968Z" fill="#00D9FF"/>
<path d="M66.0625 379.284L145.815 276.163C153.748 266.002 176.87 233.488 186.393 229.144C245.244 202.304 303.83 170.939 363.233 145.876C366.015 144.702 399.832 145.227 404.931 145.236C434.476 145.416 464.02 145.404 493.562 145.199C486.449 152.429 475.9 163.493 468.329 169.658C453.701 169.873 371.148 167.864 363.537 171.649C308.727 198.909 249.162 224.935 195.502 252.822C189.509 255.937 130.774 336.504 119.144 349.172L118.224 350.159L120.567 342.728L116.606 346.329L114.44 346.186C110.494 341.487 109.739 335.835 106.528 333.134C97.062 342.48 88.6805 353.607 80.5195 364.06C77.7018 367.671 69.7946 378.256 67.0564 380.611L66.0625 379.284Z" fill="#00D9FF"/>
<path d="M684.702 169.111C709.441 178.451 734.03 188.167 758.467 198.255C788.269 210.459 787.655 208.724 810.562 231.047C799.743 231.38 788.873 231.736 778.104 232.863C757.36 223.268 711.625 204.285 690.419 197.321C666.545 220.668 639.843 250.199 616.402 274.628C615.597 301.923 616.654 330.085 616.03 357.733C607.686 365.844 601.386 371.639 592.428 379.111C591.422 366.376 591.794 350.309 591.754 337.293L591.562 266.534C619.673 234.375 654.669 200.032 684.702 169.111Z" fill="#0A2463"/>
<path d="M877.352 424.111C883.463 428.523 896.53 450.703 901.1 457.992C901.664 486.174 901.714 514.365 901.241 542.549C891.204 553.517 880.885 564.225 870.295 574.662C829.514 575.566 785.028 574.82 744.005 574.86L718.062 574.952C725.633 566.507 733.173 557.919 741.71 550.479C781.223 550.876 820.735 550.804 860.248 550.261L877.221 533.765C877.996 497.693 876.788 460.451 877.352 424.111Z" fill="#0A2463"/>
<path d="M519.23 706.111C536.641 717.412 558.253 731.543 576.068 741.917C586.728 759.583 654.952 872.942 655.062 878.421C649.077 879.61 635.193 878.945 628.502 878.744C620.301 862.458 566.012 768.245 556.944 759.744C548.873 752.18 504.942 725.57 493.617 719.426L493.062 716.868C496.579 713.262 513.809 708.196 519.23 706.111Z" fill="#00D9FF"/>
<path d="M519.23 706.111C536.641 717.424 558.253 731.571 576.068 741.956C586.728 759.642 654.952 873.126 655.062 878.611C628.351 836.454 599.907 786.775 574.314 743.297C555.765 733.86 536.207 718.13 518.091 708.662C510.867 711.839 498.796 714.944 493.617 719.441L493.062 716.88C496.579 713.27 513.809 708.199 519.23 706.111Z" fill="#00D9FF"/>
<path d="M363.976 280.611C367.163 282.354 365.779 302.412 365.675 307.066C349.009 314.377 283.213 342.828 273.426 351.668C261.552 362.394 252.617 378.432 241.877 390.611L233.738 383.239L224.562 373.818C233.428 362.565 250.038 340.629 259.244 331.335C263.797 326.739 297.789 311.866 306.054 308.03C325.413 299 344.72 289.861 363.976 280.611Z" fill="#00D9FF"/>
<path d="M810.627 231.111C833.417 252.442 861.376 282.06 883.399 304.872C886.953 308.554 903.654 341.699 906.563 347.857C904.452 348.402 903.988 348.721 901.988 349.619C900.292 353.501 901.049 353.257 901.665 358.205L900.353 359.611C898.535 357.904 897.293 356.514 895.627 354.672C889.488 355.51 896.445 355.813 890.911 358.976C885.873 355.854 882.046 343.911 878.946 337.835L877.189 337.571L875.594 340.399C872.655 335.2 868.879 324.729 865.506 320.797C839.364 290.323 804.084 263.186 778.062 232.928C788.867 231.801 799.772 231.444 810.627 231.111Z" fill="#00D9FF"/>
<path d="M700.944 668.32C739.958 668.208 780.099 667.853 819.063 668.442C812.538 676.719 804.366 685.28 797.168 693.079C783.989 693.678 768.639 693.374 755.289 693.404C738.752 693.313 715.963 692.074 700.361 695.334C695.073 696.431 679.713 703.204 674.023 705.611C663.981 701.275 657.859 697.324 649.062 690.947C664.302 683.178 685.041 674.982 700.944 668.32Z" fill="#0A2463"/>
<path d="M632.062 771.111L646.084 778.719C650.915 781.222 668.033 789.677 670.384 793.027C679.119 805.509 688.429 826.648 695.531 840.31C702.34 853.326 709.35 866.242 716.562 879.046C707.454 879.036 697.417 879.258 688.389 878.935C677.646 860.42 667.115 838.131 656.988 818.939C652.015 809.545 640.788 788.931 637.338 780.092L632.062 771.111Z" fill="#0A2463"/>
<path d="M632.062 771.111L646.063 778.736L637.33 780.111L632.062 771.111Z" fill="#0A2463"/>
<path d="M122.203 477.111C124.765 478.38 203.358 557.877 208.062 564.087C196.949 564.752 185.265 564.621 174.111 564.555C157.467 546.517 140.223 529.048 122.409 512.178C121.808 501.175 122.162 488.259 122.203 477.111Z" fill="#0A2463"/>
<path d="M551.349 296.611C554.105 299.141 552.783 391.966 552.48 402.67C544.536 405.908 536.552 409.055 528.537 412.111C527.79 403.114 528.154 389.645 528.133 380.319L528.073 322.352C534.815 313.972 543.93 304.622 551.349 296.611Z" fill="#0A2463"/>
</svg>
